:SAMPLES-PER-SECOND 30
:FULLY-SPECIFIED
:DEGREES
140
root  16.98633329 39.45066797 -10.31277799 -3.856479883 -69.54019928 7.110690117
lowerback  11.01840019 1.835989952 0.1586389989
upperback  3.239779949 2.377239943 0.3511860073
thorax  -2.802409887 1.144060016 -0.03712100163
lowerneck  -5.040410042 9.969309807 -4.120669842
upperneck  8.496959686 13.92689991 -2.944969893
head  3.567199945 6.611810207 0.3600020111
lclavicle  0 -9.442270133e-015 7.951389973e-016
lhumerus  4.395589828 -1.357959986 64.84359741
lradius  2.959435142e-031 -1.926288576e-031 146.9400024
lwrist  -7.062250077e-031 -0 2.154069901
lhand  -1.496451383e-031 -27.76390076 20.11240005
lfingers  90 7.125020027 -90
lthumb  89.89689403 5.08795885 91.16245106
rclavicle  0 -9.442270133e-015 7.951389973e-016
rhumerus  5.441810131 22.36730003 -76.74949646
rradius  -2.698808546e-031 2.277120214e-031 139.8439941
rwrist  1.412450015e-030 -1.765562519e-031 -14.51220036
rhand  -7.920061211e-032 -33.2840004 9.303460121
rfingers  -90 -7.125020027 -90
rthumb  -92.93752616 -24.25625642 -97.11982154
rfemur  -14.81050014 10.81169987 3.644510031
rtibia  -0 0 53.61859894
rfoot  -4.596228854e-032 -16.19210052 -6.471819878
rtoes  5.373923086 19.29304026 -105.8922705
lfemur  -24.7378006 6.331739902 -4.799540043
ltibia  -0 0 62.90039825
lfoot  8.848982277e-032 -3.96401 -6.783140182
ltoes  -4.250644065 -19.5611806 -102.515957
141
root  17.06968893 39.52311118 -10.29084423 -4.733009815 -70.39070129 8.055450439
lowerback  11.39550018 2.049580097 -0.02144820057
upperback  3.409090042 2.619220018 0.033781901
thorax  -2.825670004 1.261019945 -0.306652993
lowerneck  -5.168109894 9.998390198 -3.956290007
upperneck  8.378069878 13.97389984 -3.158260107
head  3.580049992 6.632999897 0.274872005
lclavicle  0 -9.442270133e-015 7.951389973e-016
lhumerus  5.421579838 -0.07641710341 64.25759888
lradius  2.948291429e-031 -1.943301749e-031 146.6100006
lwrist  -7.062250077e-031 -1.765562519e-031 3.638859987
lhand  -1.496451383e-031 -27.76390076 20.11240005
lfingers  90 7.125020027 -90
lthumb  89.89689403 5.08795885 91.16245106
rclavicle  0 -9.442270133e-015 7.951389973e-016
rhumerus  5.675970078 22.26440048 -76.84889984
rradius  -2.693913868e-031 2.282908694e-031 139.720993
rwrist  1.412450015e-030 -1.765562519e-031 -14.39509964
rhand  -7.920061211e-032 -33.2840004 9.303460121
rfingers  -90 -7.125020027 -90
rthumb  -92.93752616 -24.25625642 -97.11982154
rfemur  -17.34070015 10.54059982 2.833300114
rtibia  -0 0 56.15510178
rfoot  -4.530245766e-032 -13.01290035 -5.821320057
rtoes  5.373923086 19.29304026 -105.8922705
lfemur  -25.05170059 6.574470043 -4.609650135
ltibia  -0 0 63.14960098
lfoot  -0 -3.552510023 -8.049389839
ltoes  -4.250644065 -19.5611806 -102.515957
142
root  17.14082252 39.59311237 -10.26851098 -6.597080231 -71.2664032 9.841520309
lowerback  11.89249992 2.355449915 -0.4885340035
upperback  3.685339928 2.939219952 -0.3365800083
thorax  -2.812000036 1.414420009 -0.4857169986
lowerneck  -5.561329842 9.989430428 -4.014269829
upperneck  8.39029026 13.98830032 -3.111399889
head  3.65079999 6.634399891 0.3242140114
lclavicle  0 -9.442270133e-015 7.951389973e-016
lhumerus  6.716770172 1.206369996 63.77190018
lradius  2.93328107e-031 -1.965885602e-031 146.1699982
lwrist  -1.412450015e-030 -1.765562519e-031 5.135069847
lhand  -1.496451383e-031 -27.76390076 20.11240005
lfingers  90 7.125020027 -90
lthumb  89.89689403 5.08795885 91.16245106
rclavicle  0 -9.442270133e-015 7.951389973e-016
rhumerus  6.059179783 22.08279991 -76.75039673
rradius  -2.684447776e-031 2.294032296e-031 139.4839935
rwrist  7.062250077e-031 -0 -13.9076004
rhand  -7.920061211e-032 -33.2840004 9.303460121
rfingers  -90 -7.125020027 -90
rthumb  -92.93752616 -24.25625642 -97.11982154
rfemur  -19.67469978 10.53380013 1.842939973
rtibia  -0 0 58.57889938
rfoot  -4.478949008e-032 -9.776329994 -5.742459774
rtoes  5.373923086 19.29304026 -105.8922705
lfemur  -25.04100037 6.861209869 -4.645500183
ltibia  -0 0 63.29679871
lfoot  -0 -3.61887002 -8.4249897
ltoes  -4.250644065 -19.5611806 -102.515957
143
root  17.19684451 39.6586681 -10.24702252 -9.698220253 -71.98220062 12.87679958
lowerback  12.36330032 2.620569944 -1.408820033
upperback  3.921849966 3.142839909 -0.7515410185
thorax  -2.84649992 1.508669972 -0.4444150031
lowerneck  -5.912040234 9.977560043 -3.878540039
upperneck  8.500189781 14.01620007 -3.417989969
head  3.794049978 6.626880169 0.2358610034
lclavicle  0 -9.442270133e-015 7.951389973e-016
lhumerus  7.750400066 2.340529919 63.40570068
lradius  2.917264515e-031 -1.98957578e-031 145.7059937
lwrist  -1.412450015e-030 -1.765562519e-031 6.211359978
lhand  -1.496451383e-031 -27.76390076 20.11240005
lfingers  90 7.125020027 -90
lthumb  89.89689403 5.08795885 91.16245106
rclavicle  0 -9.442270133e-015 7.951389973e-016
rhumerus  6.427539825 22.12829971 -76.59580231
rradius  -2.674292291e-031 2.305863131e-031 139.2310028
rwrist  1.412450015e-030 -0 -13.42399979
rhand  -7.920061211e-032 -33.2840004 9.303460121
rfingers  -90 -7.125020027 -90
rthumb  -92.93752616 -24.25625642 -97.11982154
rfemur  -21.75090027 10.61950016 0.5539849997
rtibia  -0 0 60.66669846
rfoot  -4.446675488e-032 -6.960169792 -5.731750011
rtoes  5.373923086 19.29304026 -105.8922705
lfemur  -24.87849998 7.121029854 -5.053750038
ltibia  -0 0 63.2942009
lfoot  -0 -3.907490015 -8.182080269
ltoes  -4.250644065 -19.5611806 -102.515957
